<svg width="25" height="20" viewBox="0 0 25 20" fill="none" xmlns="http://www.w3.org/2000/svg">
<path d="M15 20V17.5H18.75C19.1042 17.5 19.401 17.3802 19.6406 17.1406C19.8802 16.901 20 16.6042 20 16.25V13.75C20 12.9583 20.2292 12.2396 20.6875 11.5938C21.1458 10.9479 21.75 10.4896 22.5 10.2188V9.78125C21.75 9.51042 21.1458 9.05208 20.6875 8.40625C20.2292 7.76042 20 7.04167 20 6.25V3.75C20 3.39583 19.8802 3.09896 19.6406 2.85938C19.401 2.61979 19.1042 2.5 18.75 2.5H15V0H18.75C19.7917 0 20.6771 0.364583 21.4062 1.09375C22.1354 1.82292 22.5 2.70833 22.5 3.75V6.25C22.5 6.60417 22.6198 6.90104 22.8594 7.14062C23.099 7.38021 23.3958 7.5 23.75 7.5H25V12.5H23.75C23.3958 12.5 23.099 12.6198 22.8594 12.8594C22.6198 13.099 22.5 13.3958 22.5 13.75V16.25C22.5 17.2917 22.1354 18.1771 21.4062 18.9062C20.6771 19.6354 19.7917 20 18.75 20H15ZM6.25 20C5.20833 20 4.32292 19.6354 3.59375 18.9062C2.86458 18.1771 2.5 17.2917 2.5 16.25V13.75C2.5 13.3958 2.38021 13.099 2.14062 12.8594C1.90104 12.6198 1.60417 12.5 1.25 12.5H0V7.5H1.25C1.60417 7.5 1.90104 7.38021 2.14062 7.14062C2.38021 6.90104 2.5 6.60417 2.5 6.25V3.75C2.5 2.70833 2.86458 1.82292 3.59375 1.09375C4.32292 0.364583 5.20833 0 6.25 0H10V2.5H6.25C5.89583 2.5 5.59896 2.61979 5.35938 2.85938C5.11979 3.09896 5 3.39583 5 3.75V6.25C5 7.04167 4.77083 7.76042 4.3125 8.40625C3.85417 9.05208 3.25 9.51042 2.5 9.78125V10.2188C3.25 10.4896 3.85417 10.9479 4.3125 11.5938C4.77083 12.2396 5 12.9583 5 13.75V16.25C5 16.6042 5.11979 16.901 5.35938 17.1406C5.59896 17.3802 5.89583 17.5 6.25 17.5H10V20H6.25Z" fill="#FFB800"/>
</svg>
